<?xml version="1.0" encoding="UTF-8" standalone="no"?><!DOCTYPE svg PUBLIC "-//W3C//DTD SVG 1.1//EN" "http://www.w3.org/Graphics/SVG/1.1/DTD/svg11.dtd"><svg width="100%" height="100%" viewBox="0 0 24 24" version="1.1" xmlns="http://www.w3.org/2000/svg" xmlns:xlink="http://www.w3.org/1999/xlink" xml:space="preserve" xmlns:serif="http://www.serif.com/" style="fill-rule:evenodd;clip-rule:evenodd;stroke-linejoin:round;stroke-miterlimit:1.41421;"><g><path d="M2.967,3.709l0,-2.967c0,-0.41 0.332,-0.742 0.742,-0.742c0.41,0 0.742,0.332 0.742,0.742l0,2.967c0,0.41 -0.332,0.742 -0.742,0.742c-0.41,0 -0.742,-0.332 -0.742,-0.742Zm12.612,0.742c0.41,0 0.742,-0.332 0.742,-0.742l0,-2.967c0,-0.41 -0.332,-0.742 -0.742,-0.742c-0.41,0 -0.742,0.332 -0.742,0.742l0,2.967c0,0.41 0.332,0.742 0.742,0.742Zm8.16,13.353c0,3.278 -2.657,5.935 -5.935,5.935c-3.277,0 -5.935,-2.657 -5.935,-5.935c0,-3.277 2.658,-5.935 5.935,-5.935c3.278,0 5.935,2.658 5.935,5.935Zm-1.484,0c0,-2.454 -1.996,-4.451 -4.451,-4.451c-2.454,0 -4.451,1.997 -4.451,4.451c0,2.455 1.997,4.451 4.451,4.451c2.455,0 4.451,-1.996 4.451,-4.451Zm-16.32,-8.902l-2.968,0l0,2.967l2.968,0l0,-2.967Zm-2.968,7.418l2.968,0l0,-2.967l-2.968,0l0,2.967Zm4.451,-4.451l2.968,0l0,-2.967l-2.968,0l0,2.967Zm0,4.451l2.968,0l0,-2.967l-2.968,0l0,2.967Zm-5.934,1.336l0,-10.238l16.32,0l0,2.968l1.484,0l0,-5.787c0,-0.901 -0.719,-1.632 -1.607,-1.632l-0.619,0l0,0.742c0,0.817 -0.665,1.484 -1.483,1.484c-0.819,0 -1.484,-0.667 -1.484,-1.484l0,-0.742l-8.902,0l0,0.742c0,0.817 -0.665,1.484 -1.484,1.484c-0.818,0 -1.483,-0.667 -1.483,-1.484l0,-0.742l-0.618,0c-0.889,0 -1.608,0.731 -1.608,1.632l0,13.057c0,0.899 0.719,1.632 1.608,1.632l8.778,0l0,-1.484l-8.778,0c-0.068,0 -0.124,-0.069 -0.124,-0.148Zm13.353,-5.787l0,-2.967l-2.968,0l0,2.967l2.968,0Zm5.193,5.935l-2.226,0l0,-2.226c0,-0.409 -0.332,-0.741 -0.742,-0.741c-0.41,0 -0.741,0.332 -0.741,0.741l0,2.968c0,0.41 0.331,0.742 0.741,0.742l2.968,0c0.41,0 0.741,-0.332 0.741,-0.742c0,-0.41 -0.331,-0.742 -0.741,-0.742Z" style="fill:#fff;fill-rule:nonzero;"/></g></svg>