<?xml version="1.0" encoding="UTF-8" standalone="no"?><!DOCTYPE svg PUBLIC "-//W3C//DTD SVG 1.1//EN" "http://www.w3.org/Graphics/SVG/1.1/DTD/svg11.dtd"><svg width="100%" height="100%" viewBox="0 0 13 13" version="1.1" xmlns="http://www.w3.org/2000/svg" xmlns:xlink="http://www.w3.org/1999/xlink" xml:space="preserve" xmlns:serif="http://www.serif.com/" style="fill-rule:evenodd;clip-rule:evenodd;stroke-linejoin:round;stroke-miterlimit:1.41421;"><g><path d="M6.474,0c-3.575,0 -6.474,2.899 -6.474,6.474c0,3.576 2.899,6.475 6.474,6.475c3.576,0 6.475,-2.899 6.475,-6.475c0,-3.575 -2.899,-6.474 -6.475,-6.474Zm0,2.274l3.832,2.389l-7.663,0l3.831,-2.389Zm3.879,6.204l0,0c0,0.383 -0.311,0.694 -0.694,0.694l-6.37,0c-0.383,0 -0.693,-0.311 -0.693,-0.694l0,-3.663c0,-0.04 0.004,-0.08 0.011,-0.119l3.66,2.283c0.005,0.003 0.009,0.005 0.014,0.007c0.005,0.003 0.01,0.006 0.015,0.008c0.026,0.013 0.052,0.024 0.079,0.031c0.003,0.001 0.006,0.001 0.009,0.002c0.03,0.007 0.06,0.011 0.09,0.011l0.001,0c0.03,0 0.06,-0.004 0.09,-0.011c0.003,-0.001 0.006,-0.001 0.009,-0.002c0.027,-0.007 0.053,-0.018 0.079,-0.031c0.005,-0.002 0.01,-0.005 0.015,-0.008c0.005,-0.002 0.009,-0.004 0.014,-0.007l3.66,-2.283c0.007,0.039 0.011,0.079 0.011,0.119l0,3.663Z" style="fill:#ff491b;fill-rule:nonzero;"/></g></svg>