<?xml version="1.0" encoding="UTF-8" standalone="no"?><!DOCTYPE svg PUBLIC "-//W3C//DTD SVG 1.1//EN" "http://www.w3.org/Graphics/SVG/1.1/DTD/svg11.dtd"><svg width="100%" height="100%" viewBox="0 0 30 30" version="1.1" xmlns="http://www.w3.org/2000/svg" xmlns:xlink="http://www.w3.org/1999/xlink" xml:space="preserve" xmlns:serif="http://www.serif.com/" style="fill-rule:evenodd;clip-rule:evenodd;stroke-linejoin:round;stroke-miterlimit:1.41421;"><g><path d="M29.625,14.813c0,8.181 -6.632,14.812 -14.813,14.812c-8.181,0 -14.812,-6.631 -14.812,-14.812c0,-8.181 6.631,-14.813 14.813,-14.813c8.18,0 14.812,6.632 14.812,14.813" style="fill:#fff;fill-rule:nonzero;"/><path d="M17.524,7.973c-0.002,0.046 -0.007,0.092 -0.007,0.138c0,0.742 -0.002,1.484 0.002,2.226c0.001,0.104 -0.03,0.129 -0.13,0.128c-0.404,-0.003 -0.807,-0.003 -1.212,0.004c-0.137,0.003 -0.275,0.024 -0.411,0.05c-0.254,0.048 -0.44,0.254 -0.45,0.541c-0.02,0.522 -0.018,1.046 -0.027,1.568c-0.002,0.096 0.062,0.079 0.117,0.079c0.657,0.001 1.315,0.001 1.973,0.001l0.149,0c-0.088,0.839 -0.175,1.659 -0.262,2.487l-1.974,0l0,0.156c-0.001,2.311 -0.002,4.622 -0.003,6.933c0,0.046 -0.003,0.092 -0.003,0.139l-2.701,0c0.001,-0.216 0.002,-0.432 0.002,-0.647c0.001,-2.131 0.001,-4.262 0.001,-6.393l0,-0.184l-1.8,0c-0.003,-0.051 -0.007,-0.088 -0.007,-0.126c0,-0.746 0.002,-1.492 -0.002,-2.238c-0.001,-0.103 0.03,-0.129 0.13,-0.129c0.516,0.005 1.032,-0.001 1.547,0.004c0.109,0.002 0.133,-0.035 0.133,-0.138c0.003,-0.669 0,-1.339 0.024,-2.007c0.018,-0.487 0.12,-0.96 0.345,-1.4c0.248,-0.482 0.633,-0.811 1.144,-0.974c0.284,-0.09 0.584,-0.129 0.876,-0.19c0.041,-0.009 0.082,-0.019 0.123,-0.028l2.423,0Z" style="fill:#262626;fill-rule:nonzero;"/></g></svg>