<?xml version="1.0" encoding="UTF-8" standalone="no"?><!DOCTYPE svg PUBLIC "-//W3C//DTD SVG 1.1//EN" "http://www.w3.org/Graphics/SVG/1.1/DTD/svg11.dtd"><svg width="100%" height="100%" viewBox="0 0 38 41" version="1.1" xmlns="http://www.w3.org/2000/svg" xmlns:xlink="http://www.w3.org/1999/xlink" xml:space="preserve" xmlns:serif="http://www.serif.com/" style="fill-rule:evenodd;clip-rule:evenodd;stroke-linejoin:round;stroke-miterlimit:1.41421;"><g><path d="M8.705,12.723l6.027,0c0.37,0 0.67,-0.299 0.67,-0.669c0,-0.371 -0.3,-0.67 -0.67,-0.67l-6.027,0c-0.37,0 -0.669,0.299 -0.669,0.67c0,0.37 0.299,0.669 0.669,0.669Z" style="fill:#fff;fill-rule:nonzero;"/><path d="M8.705,17.411l3.349,0c0.37,0 0.669,-0.3 0.669,-0.67c0,-0.37 -0.299,-0.67 -0.669,-0.67l-3.349,0c-0.37,0 -0.669,0.3 -0.669,0.67c0,0.37 0.299,0.67 0.669,0.67Z" style="fill:#fff;fill-rule:nonzero;"/><path d="M17.411,17.411l4.687,0c0.371,0 0.67,-0.3 0.67,-0.67c0,-0.37 -0.299,-0.67 -0.67,-0.67l-4.687,0c-0.371,0 -0.67,0.3 -0.67,0.67c0,0.37 0.299,0.67 0.67,0.67Z" style="fill:#fff;fill-rule:nonzero;"/><path d="M15.208,17.217c0.12,-0.128 0.194,-0.302 0.194,-0.476c0,-0.175 -0.074,-0.349 -0.194,-0.475c-0.255,-0.248 -0.697,-0.248 -0.951,0c-0.122,0.126 -0.194,0.3 -0.194,0.475c0,0.174 0.072,0.348 0.194,0.476c0.126,0.126 0.294,0.194 0.475,0.194c0.174,0 0.348,-0.074 0.476,-0.194Z" style="fill:#fff;fill-rule:nonzero;"/><path d="M24.777,17.411c0.181,0 0.348,-0.074 0.475,-0.194c0.121,-0.128 0.194,-0.302 0.194,-0.476c0,-0.175 -0.073,-0.349 -0.194,-0.475c-0.254,-0.248 -0.696,-0.248 -0.951,0c-0.121,0.126 -0.194,0.3 -0.194,0.475c0,0.174 0.073,0.348 0.194,0.476c0.127,0.126 0.294,0.194 0.476,0.194Z" style="fill:#fff;fill-rule:nonzero;"/><path d="M10.714,21.429c0,0.37 0.3,0.669 0.67,0.669l4.687,0c0.371,0 0.67,-0.299 0.67,-0.669c0,-0.371 -0.299,-0.67 -0.67,-0.67l-4.687,0c-0.37,0 -0.67,0.299 -0.67,0.67Z" style="fill:#fff;fill-rule:nonzero;"/><path d="M9.181,21.904c0.126,-0.127 0.194,-0.301 0.194,-0.475c0,-0.175 -0.068,-0.349 -0.194,-0.476c-0.255,-0.248 -0.697,-0.248 -0.951,0c-0.127,0.127 -0.194,0.294 -0.194,0.476c0,0.174 0.073,0.348 0.194,0.475c0.126,0.121 0.301,0.194 0.475,0.194c0.174,0 0.349,-0.073 0.476,-0.194Z" style="fill:#fff;fill-rule:nonzero;"/><path d="M12.405,24.869c-1.466,0.763 -1.96,2.223 -2.14,3.737c-0.277,-0.232 -0.555,-0.464 -0.831,-0.696c-0.656,-0.55 -1.609,0.392 -0.947,0.948c0.626,0.524 1.253,1.049 1.879,1.574c0.441,0.369 1.122,0.136 1.143,-0.474c0.049,-1.45 0.117,-3.175 1.572,-3.932c0.765,-0.399 0.089,-1.556 -0.676,-1.157Z" style="fill:#fff;fill-rule:nonzero;"/><path d="M16.858,27.539c-0.927,0.215 -1.983,1.395 -2.635,0.071c-0.381,-0.773 -1.537,-0.095 -1.157,0.676c0.347,0.702 1.005,1.194 1.787,1.293c0.398,0.051 0.758,-0.006 1.131,-0.151c0.274,-0.106 1.297,-0.876 1.518,-0.48c0.42,0.753 1.577,0.078 1.156,-0.676c-0.359,-0.644 -1.087,-0.898 -1.8,-0.733Z" style="fill:#fff;fill-rule:nonzero;"/><path d="M35.501,0l-2.698,0c-0.87,0 -1.604,0.562 -1.878,1.339l-6.818,0l-4.018,0l0,-0.669c0,-0.371 -0.299,-0.67 -0.669,-0.67l-6.027,0c-0.37,0 -0.67,0.299 -0.67,0.67l0,0.669l-4.018,0l-8.705,0l0,38.84l32.813,0l0,-3.003l0.669,1.172l0,1.161c0,0.37 0.299,0.67 0.67,0.67c0.37,0 0.669,-0.3 0.669,-0.67l0,-1.161l2.679,-4.688l0,-24.955l0,-4.017l0,-2.689c0,-1.102 -0.897,-1.999 -1.999,-1.999Zm-3.358,6.027l4.018,0l0,1.339l-4.018,0l0,-1.339Zm-13.393,-4.688l0,2.009l-4.687,0l0,-1.339l0,-0.67l4.687,0Zm-6.027,1.34l0,2.009l7.366,0l0,-0.67l0,-1.339l3.349,0l0,2.678l-14.063,0l0,-0.669l0,-2.009l3.348,0Zm-4.018,4.017l16.072,0l0,-0.669l3.348,0l0,29.464l-23.437,0l0,-29.464l3.348,0l0,0.669l0.669,0Zm22.768,32.143l-30.134,0l0,-36.16l6.697,0l0,2.009l-4.688,0l0,32.142l26.116,0l0,-32.142l-4.687,0l0,-2.009l6.027,0l0,30.981l0.669,1.172l0,4.007Zm1.154,-4.687l3.05,0l-1.525,2.668l-1.339,-2.344l-0.186,-0.324Zm3.534,-1.339l-4.018,0l0,-24.108l4.018,0l0,24.108Zm-4.018,-28.125l0,-2.689c0,-0.364 0.296,-0.66 0.659,-0.66l2.698,0c0.365,0 0.661,0.296 0.661,0.66l0,2.689l-4.018,0Z" style="fill:#fff;fill-rule:nonzero;"/></g></svg>