<?xml version="1.0" encoding="UTF-8" standalone="no"?><!DOCTYPE svg PUBLIC "-//W3C//DTD SVG 1.1//EN" "http://www.w3.org/Graphics/SVG/1.1/DTD/svg11.dtd"><svg width="100%" height="100%" viewBox="0 0 48 44" version="1.1" xmlns="http://www.w3.org/2000/svg" xmlns:xlink="http://www.w3.org/1999/xlink" xml:space="preserve" xmlns:serif="http://www.serif.com/" style="fill-rule:evenodd;clip-rule:evenodd;stroke-linejoin:round;stroke-miterlimit:1.41421;"><g><path d="M44.712,15.06l-23.828,-11.383c-0.277,-0.134 -0.612,-0.018 -0.742,0.258l-5.186,10.854l2.826,0l3.806,-7.975l20.658,9.868l-6.46,13.521l-3.637,-1.737l0,7.148l2.237,1.068c0.279,0.135 0.609,0.014 0.742,-0.263l9.847,-20.62c0.134,-0.275 0.016,-0.607 -0.263,-0.739Z" style="fill:#ff491d;fill-rule:nonzero;"/><path d="M29.936,16.1l-26.408,0c-0.305,0 -0.559,0.248 -0.559,0.553l0,22.853c0,0.307 0.254,0.558 0.559,0.558l26.407,0c0.308,0 0.558,-0.251 0.558,-0.558l0,-22.853c0.001,-0.305 -0.249,-0.553 -0.557,-0.553Zm-1.525,17.514l-1.674,0c-0.975,-2.5 -2.174,-6 -3.995,-5.532c-2.135,0.544 -3.2,5.532 -3.2,5.532c0,0 -1.093,-5.628 -4.105,-8.641c-3.013,-3.012 -5.931,8.641 -5.931,8.641l-3.988,0l0,-14.987l22.893,0l0,14.987Z" style="fill:#ff491d;fill-rule:nonzero;"/><circle cx="9.213" cy="21.843" r="1.868" style="fill:#ff491d;"/><path d="M21.744,23.161c0.419,0 0.812,-0.044 1.161,-0.113c0.408,0.172 0.905,0.278 1.439,0.278c1.379,0 2.493,-0.673 2.493,-1.504c0,-0.828 -1.114,-1.501 -2.493,-1.501c-0.516,0 -0.995,0.094 -1.392,0.259c-0.165,-0.16 -0.384,-0.259 -0.628,-0.259l-0.361,0c-0.463,0 -0.827,0.351 -0.879,0.797c-1.115,0.116 -1.944,0.52 -1.944,1.002c0,0.575 1.165,1.041 2.604,1.041Z" style="fill:#ff491d;fill-rule:nonzero;"/></g></svg>