<?xml version="1.0" encoding="UTF-8" standalone="no"?><!DOCTYPE svg PUBLIC "-//W3C//DTD SVG 1.1//EN" "http://www.w3.org/Graphics/SVG/1.1/DTD/svg11.dtd"><svg width="100%" height="100%" viewBox="0 0 45 45" version="1.1" xmlns="http://www.w3.org/2000/svg" xmlns:xlink="http://www.w3.org/1999/xlink" xml:space="preserve" xmlns:serif="http://www.serif.com/" style="fill-rule:evenodd;clip-rule:evenodd;stroke-linejoin:round;stroke-miterlimit:1.41421;"><rect id="Artboard1" x="0" y="0" width="45" height="45" style="fill:none;"/><g><g><path d="M26.624,17.417l-15.885,0c-0.351,0 -0.635,0.284 -0.635,0.635c0,0.351 0.284,0.636 0.635,0.636l15.885,0c0.352,0 0.636,-0.285 0.636,-0.636c0,-0.351 -0.284,-0.635 -0.636,-0.635Z" style="fill:#fff;fill-rule:nonzero;"/><path d="M10.739,13.604l6.354,0c0.352,0 0.636,-0.284 0.636,-0.635c0,-0.351 -0.284,-0.635 -0.636,-0.635l-6.354,0c-0.351,0 -0.635,0.284 -0.635,0.635c0,0.351 0.284,0.635 0.635,0.635Z" style="fill:#fff;fill-rule:nonzero;"/><path d="M27.26,23.135c0,-0.35 -0.284,-0.635 -0.636,-0.635l-15.885,0c-0.351,0 -0.635,0.285 -0.635,0.635c0,0.351 0.284,0.636 0.635,0.636l15.885,0c0.352,0 0.636,-0.285 0.636,-0.636Z" style="fill:#fff;fill-rule:nonzero;"/><path d="M22.177,28.219c0,-0.351 -0.285,-0.636 -0.636,-0.636l-10.802,0c-0.351,0 -0.635,0.285 -0.635,0.636c0,0.35 0.284,0.635 0.635,0.635l10.802,0c0.351,0 0.636,-0.285 0.636,-0.635Z" style="fill:#fff;fill-rule:nonzero;"/><path d="M10.739,32.666c-0.351,0 -0.635,0.285 -0.635,0.636c0,0.35 0.284,0.635 0.635,0.635l8.896,0c0.351,0 0.635,-0.285 0.635,-0.635c0,-0.351 -0.284,-0.636 -0.635,-0.636l-8.896,0Z" style="fill:#fff;fill-rule:nonzero;"/><path d="M5.021,4.709l18.426,0l0,8.895l8.896,0l0,9.531l1.271,0l0,-10.429l-9.268,-9.268l-20.596,0l0,38.124l23.51,0l0,-1.271l-22.239,0l0,-35.582Zm19.697,0.898l6.726,6.727l-6.726,0l0,-6.727Z" style="fill:#fff;fill-rule:nonzero;"/><path d="M41.074,40.476l-3.793,-3.967c1.109,-1.22 1.791,-2.833 1.791,-4.608c0.001,-3.782 -3.076,-6.859 -6.859,-6.859c-3.782,0 -6.86,3.077 -6.86,6.859c0,3.783 3.078,6.86 6.86,6.86c1.552,0 2.98,-0.523 4.13,-1.395l3.813,3.987c0.124,0.131 0.291,0.197 0.459,0.197c0.158,0 0.316,-0.059 0.439,-0.176c0.253,-0.242 0.263,-0.645 0.02,-0.898Zm-14.45,-8.575c0,-3.081 2.508,-5.589 5.589,-5.589c3.082,0 5.589,2.508 5.589,5.589c0,3.082 -2.507,5.589 -5.589,5.589c-3.081,0 -5.589,-2.507 -5.589,-5.589Z" style="fill:#fff;fill-rule:nonzero;"/></g></g></svg>