<?xml version="1.0" encoding="UTF-8" standalone="no"?><!DOCTYPE svg PUBLIC "-//W3C//DTD SVG 1.1//EN" "http://www.w3.org/Graphics/SVG/1.1/DTD/svg11.dtd"><svg width="100%" height="100%" viewBox="0 0 48 44" version="1.1" xmlns="http://www.w3.org/2000/svg" xmlns:xlink="http://www.w3.org/1999/xlink" xml:space="preserve" xmlns:serif="http://www.serif.com/" style="fill-rule:evenodd;clip-rule:evenodd;stroke-linejoin:round;stroke-miterlimit:1.41421;"><g><circle cx="25.837" cy="8.794" r="2.869" style="fill:#ff491d;"/><path d="M30.551,8.14c0.002,-0.883 -0.251,-1.749 -0.743,-2.506c-0.669,-1.028 -1.698,-1.733 -2.897,-1.987c-1.199,-0.254 -2.426,-0.026 -3.453,0.643c-0.764,0.496 -1.349,1.191 -1.704,2.008c-0.504,0.194 -0.937,0.732 -1.084,1.429c-0.207,0.977 0.225,1.897 0.966,2.053c0.19,0.041 0.383,0.026 0.567,-0.034l0.549,-2.592c0.229,-0.754 0.71,-1.396 1.378,-1.831c0.752,-0.489 1.649,-0.655 2.526,-0.47c0.877,0.186 1.629,0.702 2.118,1.454c0.489,0.751 0.656,1.648 0.47,2.525l-0.472,2.305c0.144,0.13 0.314,0.221 0.505,0.261c0.74,0.157 1.508,-0.508 1.715,-1.486c0.152,-0.713 -0.039,-1.395 -0.441,-1.772Z" style="fill:#ff491d;fill-rule:nonzero;"/><path d="M12.96,23.018l-6.898,0c-0.537,0 -0.973,0.435 -0.973,0.973l0,16.785l8.844,0l0,-16.785c0,-0.538 -0.435,-0.973 -0.973,-0.973Zm-3.449,14.216c-1.124,0 -2.035,-0.911 -2.035,-2.035c0,-1.124 0.911,-2.035 2.035,-2.035c1.124,0 2.035,0.911 2.035,2.035c0,1.124 -0.911,2.035 -2.035,2.035Zm0,-6.29c-1.623,0 -2.939,-1.316 -2.939,-2.939c0,-1.624 1.316,-2.94 2.939,-2.94c1.623,0 2.94,1.316 2.94,2.94c0,1.623 -1.316,2.939 -2.94,2.939Z" style="fill:#ff491d;fill-rule:nonzero;"/><path d="M41.938,23.042l-6.898,0c-0.538,0 -0.973,0.436 -0.973,0.973l0,16.785l8.844,0l0,-16.785c0,-0.538 -0.436,-0.973 -0.973,-0.973Zm-3.449,13.987c-1.124,0 -2.035,-0.912 -2.035,-2.035c0,-1.124 0.911,-2.035 2.035,-2.035c1.124,0 2.035,0.911 2.035,2.035c0,1.123 -0.911,2.035 -2.035,2.035Zm0,-6.29c-1.623,0 -2.94,-1.317 -2.94,-2.94c0,-1.623 1.317,-2.939 2.94,-2.939c1.623,0 2.939,1.316 2.939,2.939c0,1.623 -1.316,2.94 -2.939,2.94Z" style="fill:#ff491d;fill-rule:nonzero;"/><circle cx="9.511" cy="28.005" r="1.089" style="fill:#ff491d;"/><circle cx="9.511" cy="35.199" r="0.754" style="fill:#ff491d;"/><circle cx="38.489" cy="27.799" r="1.089" style="fill:#ff491d;"/><circle cx="38.489" cy="34.994" r="0.754" style="fill:#ff491d;"/><path d="M32.709,16.749c-1.324,-1.088 -2.844,-2.33 -3.602,-2.949c-0.32,-0.261 -0.693,-0.438 -1.097,-0.524c-1.552,-0.329 -5.542,-1.173 -6.019,-1.274l-4.641,-1.566l-0.718,-6.415c-0.078,-0.701 -0.711,-1.207 -1.412,-1.128c-0.701,0.079 -1.206,0.711 -1.127,1.412l0.808,7.223c0.055,0.494 0.391,0.91 0.862,1.069l5.167,1.744l-1.353,6.387c0.04,0.016 0.079,0.032 0.116,0.05c0.201,-0.098 0.427,-0.153 0.665,-0.153c1.477,0 1.426,-0.005 1.567,0.015c0.268,-0.239 0.622,-0.385 1.009,-0.385l2.964,0l1.597,-1.52l0.536,-2.53l1.945,1.604c-0.678,0.651 -2.345,2.253 -2.87,2.759c-0.261,0.25 -0.392,0.585 -0.392,0.921l-3.78,0c-0.159,0 -0.287,0.129 -0.287,0.288l0,1.253l-0.645,0l0,-0.883c0,-0.159 -0.128,-0.288 -0.287,-0.288l-1.357,0c-0.159,0 -0.288,0.129 -0.288,0.288l0,0.883l-0.753,0l0,-0.883c0,-0.159 -0.129,-0.288 -0.288,-0.288l-1.357,0c-0.159,0 -0.288,0.129 -0.288,0.288l0,0.884c-0.527,0.012 -0.951,0.442 -0.951,0.972l0,16.785l15.134,0l0,-16.785c0,-0.538 -0.435,-0.973 -0.973,-0.973l-0.465,0l0,-1.254c0,-0.159 -0.129,-0.287 -0.288,-0.287l-0.006,0c1.345,-1.293 1.636,-1.572 2.947,-2.832c0.55,-0.529 0.517,-1.421 -0.073,-1.908Z" style="fill:#ff491d;fill-rule:nonzero;"/></g></svg>