<?xml version="1.0" encoding="UTF-8" standalone="no"?><!DOCTYPE svg PUBLIC "-//W3C//DTD SVG 1.1//EN" "http://www.w3.org/Graphics/SVG/1.1/DTD/svg11.dtd"><svg width="100%" height="100%" viewBox="0 0 48 44" version="1.1" xmlns="http://www.w3.org/2000/svg" xmlns:xlink="http://www.w3.org/1999/xlink" xml:space="preserve" xmlns:serif="http://www.serif.com/" style="fill-rule:evenodd;clip-rule:evenodd;stroke-linejoin:round;stroke-miterlimit:1.41421;"><g><path d="M41.151,40.392c0,-1.6 -1.842,-3.76 -4.33,-4.391c1.038,-0.699 1.755,-2.078 1.755,-3.321c0,-1.754 -1.422,-3.175 -3.172,-3.175c-1.756,0 -3.175,1.421 -3.175,3.175c0,1.243 0.718,2.622 1.755,3.321c-2.488,0.631 -4.33,2.791 -4.33,4.391c-0.002,1.891 11.497,1.891 11.497,0Z" style="fill:#ff491d;fill-rule:nonzero;"/><path d="M14.366,9.061c1.418,0 2.571,-1.651 2.571,-3.07c0,-1.424 -1.153,-2.574 -2.571,-2.574c-1.422,0 -2.576,1.15 -2.576,2.574c0,1.419 1.154,3.07 2.576,3.07Z" style="fill:#ff491d;fill-rule:nonzero;"/><path d="M41.345,16.626l0,-10.893c0,-1.001 -0.815,-1.815 -1.816,-1.815l-7.035,0l0,-1.362c0,-0.377 -0.305,-0.681 -0.682,-0.681c-0.376,0 -0.682,0.306 -0.682,0.681l0,1.362l-7.033,0c-1.001,0 -1.816,0.814 -1.816,1.815l0,5.578l-3.524,-1.176c-0.221,-0.077 -2.196,-0.768 -4.016,-0.858l-0.244,0.486l-0.004,0l0.685,5.337l-0.814,1.424l-0.814,-1.424l0.684,-5.337l-0.006,0l-0.242,-0.486c-1.888,0.095 -3.947,0.834 -4.038,0.866c-0.038,0.015 -0.062,0.044 -0.097,0.06c-0.061,0.031 -0.116,0.062 -0.17,0.104c-0.055,0.039 -0.097,0.082 -0.141,0.131c-0.042,0.05 -0.079,0.098 -0.111,0.154c-0.037,0.061 -0.063,0.119 -0.085,0.188c-0.011,0.035 -0.035,0.062 -0.044,0.098l-1.628,7.327c-0.121,0.548 0.223,1.093 0.773,1.215c0.074,0.014 0.146,0.021 0.222,0.021c0.467,0 0.887,-0.321 0.99,-0.795l1.504,-6.761c0.105,-0.033 0.223,-0.068 0.355,-0.105l0,6.949l-0.812,10.071c-0.031,0.389 0.137,0.738 0.405,0.982c-1.105,0.498 -1.879,1.601 -1.879,2.893c0,1.243 0.716,2.623 1.755,3.322c-2.488,0.631 -4.33,2.79 -4.33,4.39c0,1.891 11.498,1.891 11.498,0c0,-1.6 -1.843,-3.759 -4.33,-4.39c1.039,-0.699 1.756,-2.079 1.756,-3.322c0,-1.573 -1.146,-2.87 -2.649,-3.123c0.109,-0.166 0.193,-0.348 0.21,-0.559l0.731,-9.102c0.152,0.065 0.318,0.104 0.496,0.104c0.174,0 0.34,-0.039 0.491,-0.104l0.732,9.102c0.054,0.641 0.587,1.123 1.218,1.123c0.031,0 0.065,-0.001 0.097,-0.003c0.672,-0.054 1.175,-0.642 1.121,-1.314l-0.81,-10.07l0,-6.948c0.516,0.147 0.865,0.272 0.874,0.276c0.007,0.002 0.01,0.002 0.014,0.004c0.005,0.001 0.008,0.002 0.011,0.003l4.17,1.391l0,3.171c0,1.002 0.815,1.815 1.815,1.815l3.305,0l-2.9,10.821c-0.026,0.103 -0.024,0.204 -0.005,0.3c-0.193,-0.035 -0.391,-0.059 -0.594,-0.059c-1.754,0 -3.175,1.421 -3.175,3.175c0,1.243 0.717,2.622 1.756,3.321c-2.488,0.631 -4.331,2.791 -4.331,4.391c0,1.891 11.499,1.891 11.499,0c0,-1.6 -1.843,-3.76 -4.329,-4.391c1.038,-0.699 1.755,-2.078 1.755,-3.321c0,-1.143 -0.606,-2.134 -1.511,-2.695c0.119,-0.087 0.213,-0.215 0.253,-0.368l2.993,-11.175l2.32,0l0,7.92c0,0.374 0.307,0.679 0.682,0.679c0.375,0 0.682,-0.305 0.682,-0.679l0,-7.92l2.318,0l2.993,11.175c0.081,0.304 0.357,0.503 0.658,0.503c0.058,0 0.118,-0.008 0.175,-0.024c0.362,-0.098 0.579,-0.471 0.483,-0.834l-2.899,-10.821l3.304,0c0.998,0.002 1.813,-0.811 1.813,-1.813Zm-17.247,0.908c-0.501,0 -0.909,-0.408 -0.909,-0.908l0,-2.901c0.044,0.005 0.087,0.021 0.131,0.021c0.425,0 0.824,-0.27 0.966,-0.694c0.176,-0.535 -0.111,-1.111 -0.645,-1.288l-0.453,-0.151l0,-5.88c0,-0.501 0.406,-0.907 0.909,-0.907l15.431,0c0.501,0 0.909,0.406 0.909,0.907l0,10.893c0,0.5 -0.406,0.908 -0.909,0.908l-15.43,0Z" style="fill:#ff491d;fill-rule:nonzero;"/></g></svg>