<?xml version="1.0" encoding="UTF-8" standalone="no"?><!DOCTYPE svg PUBLIC "-//W3C//DTD SVG 1.1//EN" "http://www.w3.org/Graphics/SVG/1.1/DTD/svg11.dtd"><svg width="100%" height="100%" viewBox="0 0 48 44" version="1.1" xmlns="http://www.w3.org/2000/svg" xmlns:xlink="http://www.w3.org/1999/xlink" xml:space="preserve" xmlns:serif="http://www.serif.com/" style="fill-rule:evenodd;clip-rule:evenodd;stroke-linejoin:round;stroke-miterlimit:1.41421;"><g><path d="M4.5,5.375l7.008,0l0,3.504l-7.008,0l0,-3.504Zm0,4.906l7.008,0l0,23.827l-7.008,0l0,-23.827Zm1.285,19.417c0,1.21 0.98,2.191 2.19,2.191c1.209,0 2.19,-0.98 2.19,-2.191c0,-1.211 -0.981,-2.19 -2.19,-2.19c-1.21,0 -2.19,0.981 -2.19,2.19Zm-1.285,8.615l7.008,0l0,-2.804l-7.008,0l0,2.804Zm8.409,-3.294l0,3.294l9.111,0l0,-3.311c-0.372,-0.266 -1.528,-0.894 -4.205,-0.894c-2.538,0 -4.158,0.568 -4.906,0.911Zm0,-20.16c0.748,0.342 2.368,0.912 4.906,0.912c2.66,-0.001 3.819,-0.621 4.205,-0.899l0,-2.489l-9.111,0l0,2.476Zm0,1.518l0,17.125c1.015,-0.38 2.64,-0.795 4.906,-0.795c2.044,0 3.371,0.342 4.205,0.707l0,-16.948c-0.834,0.364 -2.161,0.706 -4.205,0.706c-2.266,0 -3.891,-0.416 -4.906,-0.795Zm23.971,-11.159l-4.805,0.986l0.705,3.432l4.805,-0.986l-0.705,-3.432Zm5.775,28.147l-4.805,0.986l-4.79,-23.342l4.806,-0.986l4.789,23.342Zm-1.667,-4.16c-0.244,-1.184 -1.191,-1.991 -2.113,-1.802c-0.924,0.191 -1.477,1.305 -1.232,2.489c0.243,1.184 1.189,1.992 2.112,1.801c0.924,-0.189 1.476,-1.303 1.233,-2.488Zm1.949,5.531l-4.806,0.987l0.564,2.745l4.805,-0.987l-0.563,-2.745Zm-18.815,-25.857l7.008,0l0,-3.504l-7.008,0l0,3.504Zm0,29.434l7.008,0l0,-2.804l-7.008,0l0,2.804Zm0,-7.709l7.008,0l0,-16.82l-7.008,0l0,16.82Zm0,3.504l7.008,0l0,-2.103l-7.008,0l0,2.103Zm0,-21.725l7.008,0l0,-2.102l-7.008,0l0,2.102Z" style="fill:#ff491d;fill-rule:nonzero;"/></g></svg>