<?xml version="1.0" encoding="UTF-8" standalone="no"?><!DOCTYPE svg PUBLIC "-//W3C//DTD SVG 1.1//EN" "http://www.w3.org/Graphics/SVG/1.1/DTD/svg11.dtd"><svg width="100%" height="100%" viewBox="0 0 48 44" version="1.1" xmlns="http://www.w3.org/2000/svg" xmlns:xlink="http://www.w3.org/1999/xlink" xml:space="preserve" xmlns:serif="http://www.serif.com/" style="fill-rule:evenodd;clip-rule:evenodd;stroke-linejoin:round;stroke-miterlimit:1.41421;"><g><path d="M36.5,27.631c-0.302,-0.722 -1.029,-1.185 -1.723,-1.47l-2.313,-1.064c-0.002,-1.698 -0.018,-10.153 -0.009,-11.043c0.014,-1.383 -0.151,-2.619 -0.514,-3.688l2.879,-1.04l0.007,2.66l-0.196,0c-0.136,-0.012 -0.256,0.086 -0.272,0.222l-0.253,2.197c-0.008,0.067 0.012,0.133 0.054,0.186c0.042,0.052 0.104,0.086 0.171,0.092l2.011,-0.001c0.068,-0.008 0.13,-0.04 0.172,-0.092c0.042,-0.053 0.062,-0.121 0.054,-0.188c-0.051,-0.431 -0.101,-0.862 -0.151,-1.294l-0.105,-0.903c-0.016,-0.134 -0.137,-0.232 -0.273,-0.22l-0.196,0l0.005,-3.031l0.102,-0.037l0.34,-0.123c0.289,-0.104 0.481,-0.378 0.481,-0.685c0,-0.306 -0.192,-0.58 -0.481,-0.684l-12.042,-4.352c-0.161,-0.059 -0.335,-0.059 -0.495,0l-12.044,4.352c-0.288,0.104 -0.48,0.378 -0.48,0.684c0,0.307 0.192,0.581 0.48,0.685l4.368,1.578c-0.382,1.097 -0.555,2.365 -0.541,3.781l0,10.943l-2.313,1.065c-0.694,0.285 -1.376,0.717 -1.723,1.47c0,0 -5.099,13.025 -2.333,13.025l29.666,0c2.766,0 -2.333,-13.025 -2.333,-13.025Zm-7.865,-1.118c0,0 -3.881,1.286 -4.629,5.803c-0.002,0.012 -0.009,0.012 -0.012,0c-0.747,-4.517 -4.629,-5.803 -4.629,-5.803l2.544,-2.527c-3.586,-1.608 -4.54,-7.078 -4.54,-7.078c-0.203,-0.791 -0.227,-1.332 -0.227,-1.332c1.795,-0.122 8.062,-0.662 8.491,-2.694c0.591,1.092 3.718,3.834 4.983,4.043c0,0 -1.228,5.409 -4.583,7.057l2.602,2.531Z" style="fill:#ff491d;fill-rule:nonzero;"/></g></svg>