<?xml version="1.0" encoding="UTF-8" standalone="no"?><!DOCTYPE svg PUBLIC "-//W3C//DTD SVG 1.1//EN" "http://www.w3.org/Graphics/SVG/1.1/DTD/svg11.dtd"><svg width="100%" height="100%" viewBox="0 0 45 45" version="1.1" xmlns="http://www.w3.org/2000/svg" xmlns:xlink="http://www.w3.org/1999/xlink" xml:space="preserve" xmlns:serif="http://www.serif.com/" style="fill-rule:evenodd;clip-rule:evenodd;stroke-linejoin:round;stroke-miterlimit:1.41421;"><rect id="Artboard1" x="0" y="0" width="45" height="45" style="fill:none;"/><g><path d="M4.444,32.222c0.384,0 0.695,-0.31 0.695,-0.694c0,-1.149 0.935,-2.084 2.083,-2.084c1.149,0 2.084,0.935 2.084,2.084c0,0.384 0.311,0.694 0.694,0.694c0.383,0 0.694,-0.31 0.694,-0.694c0,-1.915 -1.557,-3.472 -3.472,-3.472c-1.914,0 -3.472,1.557 -3.472,3.472c0,0.384 0.311,0.694 0.694,0.694Z" style="fill:#fff;fill-rule:nonzero;"/><path d="M4.444,28.056c0.384,0 0.695,-0.311 0.695,-0.695c0,-1.148 0.935,-2.083 2.083,-2.083c1.149,0 2.084,0.935 2.084,2.083c0,0.384 0.311,0.695 0.694,0.695c0.383,0 0.694,-0.311 0.694,-0.695c0,-1.914 -1.557,-3.472 -3.472,-3.472c-1.914,0 -3.472,1.558 -3.472,3.472c0,0.384 0.311,0.695 0.694,0.695Z" style="fill:#fff;fill-rule:nonzero;"/><path d="M4.444,23.889c0.384,0 0.695,-0.311 0.695,-0.695c0,-1.148 0.935,-2.083 2.083,-2.083c1.149,0 2.084,0.935 2.084,2.083c0,0.384 0.311,0.695 0.694,0.695c0.383,0 0.694,-0.311 0.694,-0.695c0,-1.914 -1.557,-3.472 -3.472,-3.472c-1.914,0 -3.472,1.558 -3.472,3.472c0,0.384 0.311,0.695 0.694,0.695Z" style="fill:#fff;fill-rule:nonzero;"/><path d="M4.444,19.722c0.384,0 0.695,-0.31 0.695,-0.694c0,-1.149 0.935,-2.084 2.083,-2.084c1.149,0 2.084,0.935 2.084,2.084c0,0.384 0.311,0.694 0.694,0.694c0.383,0 0.694,-0.31 0.694,-0.694c0,-1.915 -1.557,-3.472 -3.472,-3.472c-1.914,0 -3.472,1.557 -3.472,3.472c0,0.384 0.311,0.694 0.694,0.694Z" style="fill:#fff;fill-rule:nonzero;"/><path d="M5.139,14.861c0,-1.149 0.935,-2.083 2.083,-2.083c1.149,0 2.084,0.934 2.084,2.083c0,0.384 0.311,0.695 0.694,0.695c0.383,0 0.694,-0.311 0.694,-0.695c0,-1.914 -1.557,-3.472 -3.472,-3.472c-1.914,0 -3.472,1.558 -3.472,3.472c0,0.384 0.311,0.695 0.694,0.695c0.384,0 0.695,-0.311 0.695,-0.695Z" style="fill:#fff;fill-rule:nonzero;"/><path d="M38.474,2.364l-1.391,0l-4.861,0l-16.666,0l0,-0.003l-9.028,0l0,4.931c-1.583,0.323 -2.778,1.725 -2.778,3.402c0,0.384 0.311,0.695 0.694,0.695c0.384,0 0.695,-0.311 0.695,-0.695c0,-1.148 0.935,-2.083 2.083,-2.083c1.149,0 2.084,0.935 2.084,2.083c0,0.384 0.311,0.695 0.694,0.695c0.383,0 0.694,-0.311 0.694,-0.695c0,-1.677 -1.195,-3.079 -2.777,-3.402l0,-3.542l6.25,0l0,37.5l-6.25,0l0,-2.778l0,-2.083c0,-0.384 -0.311,-0.695 -0.695,-0.695c-0.383,0 -0.694,0.311 -0.694,0.695l0,1.26c-0.806,-0.287 -1.389,-1.05 -1.389,-1.955c0,-1.148 0.935,-2.083 2.083,-2.083c1.149,0 2.084,0.935 2.084,2.083c0,0.384 0.311,0.695 0.694,0.695c0.383,0 0.694,-0.311 0.694,-0.695c0,-1.914 -1.557,-3.472 -3.472,-3.472c-1.914,0 -3.472,1.558 -3.472,3.472c0,1.678 1.195,3.08 2.778,3.403l0,3.542l31.946,0c1.531,0 2.776,-1.245 2.776,-2.775l0,-34.725c0,-1.53 -1.245,-2.775 -2.776,-2.775Zm-22.918,38.886l0,-37.497l16.666,0l0,37.497l-16.666,0Zm18.055,0l0,-37.497l2.083,0l0,37.497l-2.083,0Zm6.25,-1.386c0,0.764 -0.622,1.386 -1.387,1.386l-1.391,0l0,-37.497l1.391,0c0.765,0 1.387,0.621 1.387,1.386l0,34.725Z" style="fill:#fff;fill-rule:nonzero;"/></g></svg>