<?xml version="1.0" encoding="UTF-8" standalone="no"?><!DOCTYPE svg PUBLIC "-//W3C//DTD SVG 1.1//EN" "http://www.w3.org/Graphics/SVG/1.1/DTD/svg11.dtd"><svg width="100%" height="100%" viewBox="0 0 45 45" version="1.1" xmlns="http://www.w3.org/2000/svg" xmlns:xlink="http://www.w3.org/1999/xlink" xml:space="preserve" xmlns:serif="http://www.serif.com/" style="fill-rule:evenodd;clip-rule:evenodd;stroke-linejoin:round;stroke-miterlimit:1.41421;"><rect id="Artboard1" x="0" y="0" width="45" height="45" style="fill:none;"/><g><g><path d="M15.441,19.191l-7.059,0c-0.365,0 -0.661,0.297 -0.661,0.662c0,0.365 0.296,0.662 0.661,0.662l7.059,0c0.366,0 0.662,-0.297 0.662,-0.662c0,-0.365 -0.296,-0.662 -0.662,-0.662Z" style="fill:#fff;fill-rule:nonzero;"/><path d="M18.176,29.779l-0.088,0c-0.365,0 -0.662,0.297 -0.662,0.662c0,0.366 0.297,0.662 0.662,0.662l0.088,0c0.366,0 0.662,-0.296 0.662,-0.662c0,-0.365 -0.296,-0.662 -0.662,-0.662Z" style="fill:#fff;fill-rule:nonzero;"/><path d="M18.176,19.191l-0.088,0c-0.365,0 -0.662,0.297 -0.662,0.662c0,0.365 0.297,0.662 0.662,0.662l0.088,0c0.366,0 0.662,-0.297 0.662,-0.662c0,-0.365 -0.296,-0.662 -0.662,-0.662Z" style="fill:#fff;fill-rule:nonzero;"/><path d="M18.176,26.25l-0.088,0c-0.365,0 -0.662,0.296 -0.662,0.662c0,0.365 0.297,0.662 0.662,0.662l0.088,0c0.366,0 0.662,-0.297 0.662,-0.662c0,-0.366 -0.296,-0.662 -0.662,-0.662Z" style="fill:#fff;fill-rule:nonzero;"/><path d="M15.441,22.721l-7.059,0c-0.365,0 -0.661,0.296 -0.661,0.661c0,0.366 0.296,0.662 0.661,0.662l7.059,0c0.366,0 0.662,-0.296 0.662,-0.662c0,-0.365 -0.296,-0.661 -0.662,-0.661Z" style="fill:#fff;fill-rule:nonzero;"/><path d="M15.441,33.309l-7.059,0c-0.365,0 -0.661,0.296 -0.661,0.662c0,0.365 0.296,0.661 0.661,0.661l7.059,0c0.366,0 0.662,-0.296 0.662,-0.661c0,-0.366 -0.296,-0.662 -0.662,-0.662Z" style="fill:#fff;fill-rule:nonzero;"/><path d="M15.441,29.779l-7.059,0c-0.365,0 -0.661,0.297 -0.661,0.662c0,0.366 0.296,0.662 0.661,0.662l7.059,0c0.366,0 0.662,-0.296 0.662,-0.662c0,-0.365 -0.296,-0.662 -0.662,-0.662Z" style="fill:#fff;fill-rule:nonzero;"/><path d="M15.441,26.25l-7.059,0c-0.365,0 -0.661,0.296 -0.661,0.662c0,0.365 0.296,0.662 0.661,0.662l7.059,0c0.366,0 0.662,-0.297 0.662,-0.662c0,-0.366 -0.296,-0.662 -0.662,-0.662Z" style="fill:#fff;fill-rule:nonzero;"/><path d="M29.912,29.779l-7.059,0c-0.366,0 -0.662,0.297 -0.662,0.662c0,0.366 0.296,0.662 0.662,0.662l7.059,0c0.365,0 0.661,-0.296 0.661,-0.662c0,-0.365 -0.296,-0.662 -0.661,-0.662Z" style="fill:#fff;fill-rule:nonzero;"/><path d="M32.405,8.235c-0.251,-0.835 -1.006,-1.397 -1.878,-1.397l-0.26,0c-0.872,0 -1.627,0.562 -1.877,1.397l-1.671,5.569c-0.105,0.35 0.094,0.719 0.444,0.824c0.35,0.105 0.719,-0.094 0.824,-0.444l0.638,-2.126l3.544,0l0.638,2.126c0.086,0.287 0.349,0.472 0.634,0.472c0.063,0 0.127,-0.009 0.19,-0.028c0.35,-0.105 0.549,-0.474 0.444,-0.824l-1.67,-5.569Zm-3.383,2.5l0.635,-2.119c0.082,-0.272 0.327,-0.454 0.61,-0.454l0.26,0c0.283,0 0.528,0.182 0.61,0.454l0.635,2.119l-2.75,0Z" style="fill:#fff;fill-rule:nonzero;"/><path d="M32.559,31.103l0.088,0c0.366,0 0.662,-0.296 0.662,-0.662c0,-0.365 -0.296,-0.662 -0.662,-0.662l-0.088,0c-0.366,0 -0.662,0.297 -0.662,0.662c0,0.366 0.296,0.662 0.662,0.662Z" style="fill:#fff;fill-rule:nonzero;"/><path d="M18.971,12.132l-10.589,0c-0.365,0 -0.661,0.297 -0.661,0.662c0,0.366 0.296,0.662 0.661,0.662l10.589,0c0.365,0 0.661,-0.296 0.661,-0.662c0,-0.365 -0.296,-0.662 -0.661,-0.662Z" style="fill:#fff;fill-rule:nonzero;"/><path d="M31.765,1.544c-2.546,0 -4.861,1.009 -6.567,2.647l-7.772,0l0,-0.22c0,-1.338 -1.088,-2.427 -2.426,-2.427l-5.294,0c-1.338,0 -2.427,1.089 -2.427,2.427l0,0.22l-1.103,0c-1.337,0 -2.426,1.089 -2.426,2.427l0,30c0,1.108 0.748,2.045 1.765,2.334l0,2.077c0,1.338 1.141,2.427 2.544,2.427l24.47,0c1.403,0 2.545,-1.089 2.545,-2.427l0,-2.077c1.017,-0.289 1.764,-1.226 1.764,-2.334l0,-17.578c2.65,-1.684 4.412,-4.645 4.412,-8.011c0,-5.23 -4.255,-9.485 -9.485,-9.485Zm-23.162,2.427c0,-0.609 0.495,-1.103 1.103,-1.103l5.294,0c0.608,0 1.103,0.494 1.103,1.103l0,1.764c0,0.609 -0.495,1.103 -1.103,1.103l-5.294,0c-0.608,0 -1.103,-0.494 -1.103,-1.103l0,-1.764l0,0Zm25.147,37.058c0,0.609 -0.547,1.103 -1.221,1.103l-24.47,0c-0.673,0 -1.221,-0.494 -1.221,-1.103l0,-1.985l26.912,0l0,1.985l0,0Zm1.765,-4.411c0,0.608 -0.495,1.103 -1.103,1.103l-28.236,0c-0.608,0 -1.103,-0.495 -1.103,-1.103l0,-30c0,-0.609 0.495,-1.103 1.103,-1.103l1.103,0l0,0.22c0,1.338 1.089,2.427 2.427,2.427l5.294,0c1.338,0 2.426,-1.089 2.426,-2.427l0,-0.22l6.626,0c-1.115,1.555 -1.773,3.459 -1.773,5.514c0,5.231 4.256,9.486 9.486,9.486c1.331,0 2.599,-0.277 3.75,-0.774l0,16.877Zm-3.75,-17.427c-4.501,0 -8.162,-3.661 -8.162,-8.162c0,-4.5 3.661,-8.161 8.162,-8.161c4.5,0 8.161,3.661 8.161,8.161c0,4.501 -3.661,8.162 -8.161,8.162Z" style="fill:#fff;fill-rule:nonzero;"/><path d="M37.5,10.085l-0.556,0l0,-0.556c0,-0.365 -0.296,-0.661 -0.662,-0.661c-0.365,0 -0.661,0.296 -0.661,0.661l0,0.556l-0.556,0c-0.366,0 -0.662,0.297 -0.662,0.662c0,0.365 0.296,0.662 0.662,0.662l0.556,0l0,0.556c0,0.365 0.296,0.661 0.661,0.661c0.366,0 0.662,-0.296 0.662,-0.661l0,-0.556l0.556,0c0.366,0 0.662,-0.297 0.662,-0.662c0,-0.365 -0.296,-0.662 -0.662,-0.662Z" style="fill:#fff;fill-rule:nonzero;"/><path d="M29.912,26.25l-7.059,0c-0.366,0 -0.662,0.296 -0.662,0.662c0,0.365 0.296,0.662 0.662,0.662l7.059,0c0.365,0 0.661,-0.297 0.661,-0.662c0,-0.366 -0.296,-0.662 -0.661,-0.662Z" style="fill:#fff;fill-rule:nonzero;"/><path d="M32.559,24.044l0.088,0c0.366,0 0.662,-0.296 0.662,-0.662c0,-0.365 -0.296,-0.661 -0.662,-0.661l-0.088,0c-0.366,0 -0.662,0.296 -0.662,0.661c0,0.366 0.296,0.662 0.662,0.662Z" style="fill:#fff;fill-rule:nonzero;"/><path d="M29.912,33.309l-7.059,0c-0.366,0 -0.662,0.296 -0.662,0.662c0,0.365 0.296,0.661 0.662,0.661l7.059,0c0.365,0 0.661,-0.296 0.661,-0.661c0,-0.366 -0.296,-0.662 -0.661,-0.662Z" style="fill:#fff;fill-rule:nonzero;"/><path d="M29.912,22.721l-7.059,0c-0.366,0 -0.662,0.296 -0.662,0.661c0,0.366 0.296,0.662 0.662,0.662l7.059,0c0.365,0 0.661,-0.296 0.661,-0.662c0,-0.365 -0.296,-0.661 -0.661,-0.661Z" style="fill:#fff;fill-rule:nonzero;"/></g></g></svg>