<?xml version="1.0" encoding="UTF-8" standalone="no"?><!DOCTYPE svg PUBLIC "-//W3C//DTD SVG 1.1//EN" "http://www.w3.org/Graphics/SVG/1.1/DTD/svg11.dtd"><svg width="100%" height="100%" viewBox="0 0 45 45" version="1.1" xmlns="http://www.w3.org/2000/svg" xmlns:xlink="http://www.w3.org/1999/xlink" xml:space="preserve" xmlns:serif="http://www.serif.com/" style="fill-rule:evenodd;clip-rule:evenodd;stroke-linejoin:round;stroke-miterlimit:1.41421;"><rect id="Artboard1" x="0" y="0" width="45" height="45" style="fill:none;"/><g><path d="M12.455,15.134l6.027,0c0.37,0 0.67,-0.299 0.67,-0.67c0,-0.37 -0.3,-0.669 -0.67,-0.669l-6.027,0c-0.37,0 -0.669,0.299 -0.669,0.669c0,0.371 0.299,0.67 0.669,0.67Z" style="fill:#fff;fill-rule:nonzero;"/><path d="M12.455,19.821l3.349,0c0.37,0 0.669,-0.299 0.669,-0.669c0,-0.371 -0.299,-0.67 -0.669,-0.67l-3.349,0c-0.37,0 -0.669,0.299 -0.669,0.67c0,0.37 0.299,0.669 0.669,0.669Z" style="fill:#fff;fill-rule:nonzero;"/><path d="M21.161,19.821l4.687,0c0.371,0 0.67,-0.299 0.67,-0.669c0,-0.371 -0.299,-0.67 -0.67,-0.67l-4.687,0c-0.371,0 -0.67,0.299 -0.67,0.67c0,0.37 0.299,0.669 0.67,0.669Z" style="fill:#fff;fill-rule:nonzero;"/><path d="M18.958,19.627c0.12,-0.127 0.194,-0.301 0.194,-0.475c0,-0.175 -0.074,-0.349 -0.194,-0.476c-0.255,-0.247 -0.697,-0.247 -0.951,0c-0.122,0.127 -0.194,0.301 -0.194,0.476c0,0.174 0.072,0.348 0.194,0.475c0.126,0.127 0.294,0.194 0.475,0.194c0.174,0 0.348,-0.073 0.476,-0.194Z" style="fill:#fff;fill-rule:nonzero;"/><path d="M28.527,19.821c0.181,0 0.348,-0.073 0.475,-0.194c0.121,-0.127 0.194,-0.301 0.194,-0.475c0,-0.175 -0.073,-0.349 -0.194,-0.476c-0.254,-0.247 -0.696,-0.247 -0.951,0c-0.121,0.127 -0.194,0.301 -0.194,0.476c0,0.174 0.073,0.348 0.194,0.475c0.127,0.127 0.294,0.194 0.476,0.194Z" style="fill:#fff;fill-rule:nonzero;"/><path d="M14.464,23.839c0,0.371 0.3,0.67 0.67,0.67l4.687,0c0.371,0 0.67,-0.299 0.67,-0.67c0,-0.37 -0.299,-0.669 -0.67,-0.669l-4.687,0c-0.37,0 -0.67,0.299 -0.67,0.669Z" style="fill:#fff;fill-rule:nonzero;"/><path d="M12.931,24.315c0.126,-0.128 0.194,-0.302 0.194,-0.476c0,-0.174 -0.068,-0.349 -0.194,-0.475c-0.255,-0.248 -0.697,-0.248 -0.951,0c-0.127,0.126 -0.194,0.294 -0.194,0.475c0,0.174 0.073,0.348 0.194,0.476c0.126,0.12 0.301,0.194 0.475,0.194c0.174,0 0.349,-0.074 0.476,-0.194Z" style="fill:#fff;fill-rule:nonzero;"/><path d="M16.155,27.279c-1.466,0.764 -1.96,2.224 -2.14,3.738c-0.277,-0.232 -0.555,-0.464 -0.831,-0.696c-0.656,-0.55 -1.609,0.392 -0.947,0.947c0.626,0.525 1.253,1.05 1.879,1.575c0.441,0.369 1.122,0.136 1.143,-0.474c0.049,-1.45 0.117,-3.175 1.572,-3.933c0.765,-0.399 0.089,-1.555 -0.676,-1.157Z" style="fill:#fff;fill-rule:nonzero;"/><path d="M20.608,29.95c-0.927,0.215 -1.983,1.395 -2.635,0.071c-0.381,-0.773 -1.537,-0.095 -1.157,0.675c0.347,0.703 1.005,1.195 1.787,1.294c0.398,0.05 0.758,-0.006 1.131,-0.151c0.274,-0.107 1.297,-0.876 1.518,-0.48c0.42,0.752 1.577,0.078 1.156,-0.676c-0.359,-0.644 -1.087,-0.899 -1.8,-0.733Z" style="fill:#fff;fill-rule:nonzero;"/><path d="M39.251,2.411l-2.698,0c-0.87,0 -1.604,0.562 -1.878,1.339l-6.818,0l-4.018,0l0,-0.67c0,-0.37 -0.299,-0.669 -0.669,-0.669l-6.027,0c-0.37,0 -0.67,0.299 -0.67,0.669l0,0.67l-4.018,0l-8.705,0l0,38.839l32.813,0l-0.001,-3.002l0.67,1.171l0,1.162c0,0.37 0.299,0.669 0.67,0.669c0.37,0 0.669,-0.299 0.669,-0.669l0,-1.162l2.679,-4.687l0,-24.955l0,-4.018l0,-2.688c0,-1.103 -0.897,-1.999 -1.999,-1.999Zm-3.358,6.026l4.018,0l0,1.34l-4.018,0l0,-1.34Zm-13.393,-4.687l0,2.009l-4.687,0l0,-1.339l0,-0.67l4.687,0Zm-6.027,1.339l0,2.009l7.366,0l0,-0.669l0,-1.34l3.349,0l0,2.679l-14.063,0l0,-0.67l0,-2.009l3.348,0Zm-4.018,4.018l16.072,0l0,-0.67l3.348,0l0,29.465l-23.437,0l0,-29.465l3.348,0l0,0.67l0.669,0Zm22.768,32.143l-30.134,0l0,-36.161l6.697,0l0,2.009l-4.688,0l0,32.143l26.116,0l0,-32.143l-4.687,0l0,-2.009l6.027,0l0,30.982l0.669,1.172l0,4.007Zm1.154,-4.687l3.05,0l-1.525,2.667l-1.34,-2.343l-0.185,-0.324Zm3.534,-1.34l-4.018,0l0,-24.107l4.018,0l0,24.107Zm-4.018,-28.125l0,-2.688c0,-0.364 0.296,-0.66 0.659,-0.66l2.698,0c0.365,0 0.661,0.296 0.661,0.66l0,2.688l-4.018,0Z" style="fill:#fff;fill-rule:nonzero;"/></g></svg>