<?xml version="1.0" encoding="UTF-8" standalone="no"?><!DOCTYPE svg PUBLIC "-//W3C//DTD SVG 1.1//EN" "http://www.w3.org/Graphics/SVG/1.1/DTD/svg11.dtd"><svg width="100%" height="100%" viewBox="0 0 45 45" version="1.1" xmlns="http://www.w3.org/2000/svg" xmlns:xlink="http://www.w3.org/1999/xlink" xml:space="preserve" xmlns:serif="http://www.serif.com/" style="fill-rule:evenodd;clip-rule:evenodd;stroke-linejoin:round;stroke-miterlimit:1.41421;"><rect id="Artboard1" x="0" y="0" width="45" height="45" style="fill:none;"/><g><path d="M31.486,6.659c-0.3,-1.473 -1.606,-2.586 -3.167,-2.586c-0.357,0 -0.647,0.289 -0.647,0.647c0,0.357 0.29,0.646 0.647,0.646c1.069,0 1.94,0.871 1.94,1.94c0,1.069 -0.871,1.94 -1.94,1.94c-0.357,0 -0.647,0.289 -0.647,0.646c0,0.358 0.29,0.647 0.647,0.647c1.561,0 2.867,-1.113 3.167,-2.586l8.471,0l0,5.819l-34.914,0l0,-5.819l10.991,0c0.357,0 0.647,-0.289 0.647,-0.647c0,-0.358 -0.29,-0.647 -0.647,-0.647l-1.174,0c0.268,-0.751 0.979,-1.293 1.821,-1.293c1.069,0 1.94,0.871 1.94,1.94c0,1.069 -0.871,1.94 -1.94,1.94c-0.357,0 -0.647,0.289 -0.647,0.646c0,0.358 0.29,0.647 0.647,0.647c1.783,0 3.233,-1.45 3.233,-3.233c0,-1.783 -1.45,-3.233 -3.233,-3.233c-1.561,0 -2.867,1.113 -3.167,2.586l-9.764,0l0,34.268l37.5,0l0,-25.862l0,-8.406l-9.764,0Zm8.471,32.975l-34.914,0l0,-24.569l34.914,0l0,24.569Z" style="fill:#fff;fill-rule:nonzero;"/><path d="M20.56,5.366c1.07,0 1.94,0.871 1.94,1.94c0,1.069 -0.87,1.94 -1.94,1.94c-0.357,0 -0.646,0.289 -0.646,0.646c0,0.358 0.289,0.647 0.646,0.647c1.783,0 3.233,-1.45 3.233,-3.233c0,-1.783 -1.45,-3.233 -3.233,-3.233c-0.357,0 -0.646,0.289 -0.646,0.647c0,0.357 0.289,0.646 0.646,0.646Z" style="fill:#fff;fill-rule:nonzero;"/><path d="M24.44,5.366c1.069,0 1.939,0.871 1.939,1.94c0,1.069 -0.87,1.94 -1.939,1.94c-0.357,0 -0.647,0.289 -0.647,0.646c0,0.358 0.29,0.647 0.647,0.647c1.782,0 3.232,-1.45 3.232,-3.233c0,-1.783 -1.45,-3.233 -3.232,-3.233c-0.357,0 -0.647,0.289 -0.647,0.647c0,0.357 0.29,0.646 0.647,0.646Z" style="fill:#fff;fill-rule:nonzero;"/><path d="M9.569,20.237l14.224,0c0.357,0 0.647,-0.289 0.647,-0.646c0,-0.358 -0.29,-0.647 -0.647,-0.647l-14.224,0c-0.357,0 -0.647,0.289 -0.647,0.647c0,0.357 0.29,0.646 0.647,0.646Z" style="fill:#fff;fill-rule:nonzero;"/><path d="M35.431,29.289l-9.698,0c-0.357,0 -0.647,0.289 -0.647,0.646c0,0.358 0.29,0.647 0.647,0.647l9.698,0c0.357,0 0.647,-0.289 0.647,-0.647c0,-0.357 -0.29,-0.646 -0.647,-0.646Z" style="fill:#fff;fill-rule:nonzero;"/><path d="M9.569,25.409l6.465,0c0.357,0 0.647,-0.289 0.647,-0.646c0,-0.358 -0.29,-0.647 -0.647,-0.647l-6.465,0c-0.357,0 -0.647,0.289 -0.647,0.647c0,0.357 0.29,0.646 0.647,0.646Z" style="fill:#fff;fill-rule:nonzero;"/><path d="M35.431,34.461l-6.465,0c-0.357,0 -0.647,0.289 -0.647,0.647c0,0.357 0.29,0.646 0.647,0.646l6.465,0c0.357,0 0.647,-0.289 0.647,-0.646c0,-0.358 -0.29,-0.647 -0.647,-0.647Z" style="fill:#fff;fill-rule:nonzero;"/><path d="M21.853,24.763c0,0.357 0.29,0.646 0.647,0.646l9.698,0c0.357,0 0.647,-0.289 0.647,-0.646c0,-0.358 -0.29,-0.647 -0.647,-0.647l-9.698,0c-0.357,0 -0.647,0.289 -0.647,0.647Z" style="fill:#fff;fill-rule:nonzero;"/><path d="M19.726,25.222c0.117,-0.123 0.188,-0.291 0.188,-0.459c0,-0.169 -0.071,-0.337 -0.188,-0.459c-0.239,-0.239 -0.679,-0.239 -0.918,0c-0.116,0.122 -0.187,0.29 -0.187,0.459c0,0.168 0.071,0.336 0.187,0.459c0.123,0.122 0.291,0.187 0.459,0.187c0.168,0 0.336,-0.065 0.459,-0.187Z" style="fill:#fff;fill-rule:nonzero;"/><path d="M12.155,29.935c0,0.358 0.29,0.647 0.647,0.647l9.698,0c0.357,0 0.647,-0.289 0.647,-0.647c0,-0.357 -0.29,-0.646 -0.647,-0.646l-9.698,0c-0.357,0 -0.647,0.289 -0.647,0.646Z" style="fill:#fff;fill-rule:nonzero;"/><path d="M9.569,30.582c0.168,0 0.336,-0.071 0.459,-0.188c0.116,-0.122 0.188,-0.291 0.188,-0.459c0,-0.168 -0.072,-0.337 -0.188,-0.452c-0.239,-0.246 -0.679,-0.246 -0.918,-0.007c-0.116,0.122 -0.188,0.291 -0.188,0.459c0,0.168 0.072,0.337 0.188,0.459c0.123,0.117 0.284,0.188 0.459,0.188Z" style="fill:#fff;fill-rule:nonzero;"/><path d="M35.431,25.409c0.168,0 0.336,-0.065 0.459,-0.187c0.123,-0.123 0.188,-0.291 0.188,-0.459c0,-0.169 -0.065,-0.337 -0.188,-0.459c-0.246,-0.239 -0.679,-0.239 -0.918,0c-0.116,0.122 -0.188,0.29 -0.188,0.459c0,0.168 0.072,0.336 0.188,0.459c0.123,0.122 0.291,0.187 0.459,0.187Z" style="fill:#fff;fill-rule:nonzero;"/><path d="M25.733,34.461l-16.164,0c-0.357,0 -0.647,0.289 -0.647,0.647c0,0.357 0.29,0.646 0.647,0.646l16.164,0c0.357,0 0.646,-0.289 0.646,-0.646c0,-0.358 -0.289,-0.647 -0.646,-0.647Z" style="fill:#fff;fill-rule:nonzero;"/></g></svg>