<?xml version="1.0" encoding="UTF-8" standalone="no"?><!DOCTYPE svg PUBLIC "-//W3C//DTD SVG 1.1//EN" "http://www.w3.org/Graphics/SVG/1.1/DTD/svg11.dtd"><svg width="100%" height="100%" viewBox="0 0 48 44" version="1.1" xmlns="http://www.w3.org/2000/svg" xmlns:xlink="http://www.w3.org/1999/xlink" xml:space="preserve" xmlns:serif="http://www.serif.com/" style="fill-rule:evenodd;clip-rule:evenodd;stroke-linejoin:round;stroke-miterlimit:1.41421;"><g><path d="M38.979,32.509l-0.117,0c0.942,-7.715 -1.566,-12.401 -3.39,-14.7c-0.135,-0.712 -0.421,-1.365 -0.821,-1.927l1.145,-1.145c0.887,-0.887 1.133,-2.175 0.739,-3.286l2.215,-2.214c0.527,-0.527 0.527,-1.382 0,-1.909l-3.183,-3.183c-0.253,-0.253 -0.596,-0.395 -0.954,-0.395c-0.358,0 -0.702,0.142 -0.955,0.395l-2.213,2.213c-0.335,-0.119 -0.692,-0.181 -1.059,-0.181l0,0c-0.841,0 -1.633,0.327 -2.228,0.922l-10.31,10.311c-0.887,0.887 -1.133,2.175 -0.74,3.285l-0.941,0.942c-0.595,0.595 -0.923,1.386 -0.923,2.227c0,0.842 0.328,1.633 0.923,2.228l0.636,0.636c0.595,0.595 1.386,0.923 2.228,0.923c0.841,0 1.632,-0.328 2.228,-0.923l0.939,-0.94c0.336,0.12 0.693,0.182 1.06,0.182c0.841,0 1.632,-0.328 2.227,-0.923l2.308,-2.307c0.163,0.117 0.334,0.225 0.513,0.322c0.565,2.237 0.182,4.489 -1.144,6.704c-0.794,1.326 -1.729,2.288 -2.215,2.744l-11.349,0l-1.276,-1.253l10.957,0c0.746,0 1.35,-0.604 1.35,-1.35c0,-0.745 -0.604,-1.35 -1.35,-1.35l-14.258,0c-0.549,0 -1.042,0.331 -1.25,0.839c-0.208,0.508 -0.087,1.09 0.304,1.474l3.768,3.701l0,4.014c0,0.746 0.604,1.35 1.35,1.35l25.786,0c0.746,0 1.351,-0.604 1.351,-1.35l0,-4.725c0,-0.746 -0.605,-1.351 -1.351,-1.351Zm-20.57,4.726l-2.062,-2.025l10.779,0c0.208,0.756 0.58,1.445 1.077,2.025l-9.794,0Zm0.94,-12.416c-0.115,0.115 -0.249,0.132 -0.318,0.132c-0.07,0 -0.204,-0.017 -0.318,-0.132l-0.637,-0.636c-0.114,-0.115 -0.132,-0.249 -0.132,-0.318c0,-0.07 0.018,-0.204 0.132,-0.319l0.727,-0.726l1.272,1.273l-0.726,0.726Zm6.382,-6.08c0,0.655 0.131,1.288 0.373,1.871l-2.528,2.528c-0.115,0.115 -0.249,0.132 -0.318,0.132c-0.07,0 -0.204,-0.017 -0.319,-0.132l-3.182,-3.182c-0.175,-0.176 -0.175,-0.461 0,-0.637l10.311,-10.31c0.114,-0.115 0.248,-0.132 0.318,-0.132c0.069,0 0.203,0.017 0.318,0.132l0.808,0.808c0.102,0.106 0.205,0.208 0.303,0.305c0.05,0.048 0.1,0.098 0.15,0.148l0.652,0.652c0.053,0.053 0.105,0.106 0.156,0.157c0.097,0.099 0.2,0.203 0.307,0.306l0.806,0.806c0.176,0.175 0.176,0.461 0,0.636l-1.365,1.366c-0.579,-0.238 -1.213,-0.369 -1.876,-0.369c-2.71,0 -4.914,2.205 -4.914,4.915Zm6.467,17.638c-1.412,0 -2.561,-1.149 -2.561,-2.561c0,-1.412 1.149,-2.561 2.561,-2.561c1.412,0 2.561,1.149 2.561,2.561c0,1.412 -1.149,2.561 -2.561,2.561Zm5.431,0.858l-1.437,0c0.498,-0.581 0.871,-1.27 1.079,-2.027l0.358,0.001l0,2.026Z" style="fill:#ff491d;fill-rule:nonzero;"/></g></svg>