<?xml version="1.0" encoding="UTF-8" standalone="no"?><!DOCTYPE svg PUBLIC "-//W3C//DTD SVG 1.1//EN" "http://www.w3.org/Graphics/SVG/1.1/DTD/svg11.dtd"><svg width="100%" height="100%" viewBox="0 0 11 14" version="1.1" xmlns="http://www.w3.org/2000/svg" xmlns:xlink="http://www.w3.org/1999/xlink" xml:space="preserve" xmlns:serif="http://www.serif.com/" style="fill-rule:evenodd;clip-rule:evenodd;stroke-linejoin:round;stroke-miterlimit:1.41421;"><g><path d="M5.205,0.003c-2.688,0.095 -4.921,2.192 -5.179,4.869c-0.053,0.536 -0.023,1.055 0.072,1.551c0,0 0.008,0.058 0.036,0.169c0.083,0.372 0.208,0.733 0.363,1.071c0.541,1.282 1.793,3.427 4.6,5.76c0.172,0.144 0.425,0.144 0.599,0c2.808,-2.331 4.059,-4.475 4.603,-5.762c0.158,-0.339 0.28,-0.697 0.363,-1.071c0.025,-0.109 0.036,-0.17 0.036,-0.17c0.064,-0.333 0.098,-0.674 0.098,-1.023c0,-3.046 -2.522,-5.502 -5.591,-5.394Zm0.192,8.079c-1.448,0 -2.622,-1.173 -2.622,-2.622c0,-1.448 1.174,-2.621 2.622,-2.621c1.448,0 2.621,1.173 2.621,2.621c0,1.449 -1.173,2.622 -2.621,2.622Z" style="fill:#ff862a;fill-rule:nonzero;"/></g></svg>