<?xml version="1.0" encoding="UTF-8" standalone="no"?><!DOCTYPE svg PUBLIC "-//W3C//DTD SVG 1.1//EN" "http://www.w3.org/Graphics/SVG/1.1/DTD/svg11.dtd"><svg width="100%" height="100%" viewBox="0 0 10 13" version="1.1" xmlns="http://www.w3.org/2000/svg" xmlns:xlink="http://www.w3.org/1999/xlink" xml:space="preserve" xmlns:serif="http://www.serif.com/" style="fill-rule:evenodd;clip-rule:evenodd;stroke-linejoin:round;stroke-miterlimit:1.41421;"><g><path d="M4.71,0c-2.597,0 -4.71,2.061 -4.71,4.595c0,3.145 4.215,7.761 4.394,7.956c0.169,0.183 0.463,0.183 0.631,0c0.18,-0.195 4.395,-4.811 4.395,-7.956c0,-2.534 -2.113,-4.595 -4.71,-4.595Zm0,6.907c-1.307,0 -2.37,-1.037 -2.37,-2.312c0,-1.275 1.063,-2.312 2.37,-2.312c1.306,0 2.369,1.037 2.369,2.312c0,1.275 -1.063,2.312 -2.369,2.312Z" style="fill:#ff491b;fill-rule:nonzero;"/></g></svg>