<?xml version="1.0" encoding="UTF-8" standalone="no"?><!DOCTYPE svg PUBLIC "-//W3C//DTD SVG 1.1//EN" "http://www.w3.org/Graphics/SVG/1.1/DTD/svg11.dtd"><svg width="100%" height="100%" viewBox="0 0 12 12" version="1.1" xmlns="http://www.w3.org/2000/svg" xmlns:xlink="http://www.w3.org/1999/xlink" xml:space="preserve" xmlns:serif="http://www.serif.com/" style="fill-rule:evenodd;clip-rule:evenodd;stroke-linejoin:round;stroke-miterlimit:1.41421;"><g><path d="M5.728,0c-3.163,0 -5.728,2.565 -5.728,5.728c0,3.162 2.565,5.727 5.728,5.727c3.163,0 5.727,-2.565 5.727,-5.727c0,-3.163 -2.564,-5.728 -5.727,-5.728Zm3.024,8.357l-0.459,0.459c-0.081,0.082 -0.321,0.133 -0.329,0.133c-1.451,0.012 -2.848,-0.558 -3.874,-1.584c-1.029,-1.03 -1.6,-2.432 -1.584,-3.887c0,-0.001 0.052,-0.234 0.134,-0.315l0.459,-0.459c0.167,-0.168 0.49,-0.244 0.716,-0.169l0.096,0.032c0.225,0.076 0.462,0.325 0.524,0.554l0.231,0.847c0.062,0.23 -0.022,0.557 -0.19,0.725l-0.306,0.306c0.3,1.113 1.174,1.986 2.287,2.288l0.306,-0.306c0.169,-0.169 0.496,-0.253 0.725,-0.191l0.847,0.232c0.229,0.063 0.478,0.298 0.553,0.523l0.033,0.098c0.074,0.225 -0.001,0.547 -0.169,0.714Z" style="fill:#ff491b;fill-rule:nonzero;"/></g></svg>