<?xml version="1.0" encoding="UTF-8" standalone="no"?><!DOCTYPE svg PUBLIC "-//W3C//DTD SVG 1.1//EN" "http://www.w3.org/Graphics/SVG/1.1/DTD/svg11.dtd"><svg width="100%" height="100%" viewBox="0 0 30 30" version="1.1" xmlns="http://www.w3.org/2000/svg" xmlns:xlink="http://www.w3.org/1999/xlink" xml:space="preserve" xmlns:serif="http://www.serif.com/" style="fill-rule:evenodd;clip-rule:evenodd;stroke-linejoin:round;stroke-miterlimit:1.41421;"><g><path d="M29.625,14.813c0,8.181 -6.631,14.812 -14.812,14.812c-8.181,0 -14.813,-6.631 -14.813,-14.812c0,-8.181 6.632,-14.813 14.813,-14.813c8.181,0 14.812,6.632 14.812,14.813" style="fill:#fff;fill-rule:nonzero;"/><path d="M12.03,19.215c-1.478,-0.17 -2.493,-0.884 -3.027,-2.277c0.476,0.003 0.923,0.054 1.363,-0.075c-0.915,-0.272 -1.628,-0.789 -2.094,-1.629c-0.276,-0.495 -0.426,-1.019 -0.404,-1.625c0.44,0.234 0.893,0.359 1.382,0.383c-0.876,-0.692 -1.345,-1.581 -1.356,-2.698c-0.005,-0.577 0.181,-1.28 0.425,-1.614c0.298,0.291 0.591,0.583 0.89,0.869c1.421,1.357 3.116,2.144 5.051,2.431c0.24,0.036 0.485,0.053 0.727,0.078c0.014,0.001 0.03,-0.005 0.065,-0.01c-0.005,-0.054 -0.009,-0.108 -0.015,-0.162c-0.099,-0.897 0.024,-1.744 0.588,-2.48c0.748,-0.977 1.731,-1.436 2.968,-1.335c0.716,0.059 1.334,0.337 1.859,0.817c0.162,0.147 0.322,0.198 0.522,0.123c0.465,-0.174 0.93,-0.351 1.393,-0.529c0.115,-0.044 0.226,-0.099 0.377,-0.167c-0.258,0.731 -0.71,1.266 -1.275,1.728c0.576,-0.033 1.107,-0.24 1.647,-0.413c0.009,0.011 0.016,0.022 0.024,0.032c-0.068,0.096 -0.132,0.194 -0.205,0.285c-0.362,0.451 -0.758,0.868 -1.22,1.219c-0.092,0.07 -0.126,0.146 -0.135,0.258c-0.049,0.626 -0.051,1.262 -0.169,1.874c-0.542,2.802 -1.977,5.016 -4.449,6.495c-1.325,0.794 -2.776,1.194 -4.328,1.195c-0.711,0 -1.421,0.014 -2.125,-0.12c-1.115,-0.212 -2.146,-0.63 -3.119,-1.202c-0.027,-0.015 -0.051,-0.036 -0.077,-0.076c0.831,-0.011 1.66,-0.01 2.468,-0.248c0.804,-0.238 1.54,-0.602 2.249,-1.127" style="fill:#262626;fill-rule:nonzero;"/></g></svg>