<?xml version="1.0" encoding="UTF-8" standalone="no"?><!DOCTYPE svg PUBLIC "-//W3C//DTD SVG 1.1//EN" "http://www.w3.org/Graphics/SVG/1.1/DTD/svg11.dtd"><svg width="100%" height="100%" viewBox="0 0 30 30" version="1.1" xmlns="http://www.w3.org/2000/svg" xmlns:xlink="http://www.w3.org/1999/xlink" xml:space="preserve" xmlns:serif="http://www.serif.com/" style="fill-rule:evenodd;clip-rule:evenodd;stroke-linejoin:round;stroke-miterlimit:1.41421;"><g><path d="M29.625,14.813c0,8.181 -6.631,14.812 -14.812,14.812c-8.181,0 -14.813,-6.631 -14.813,-14.812c0,-8.181 6.632,-14.813 14.813,-14.813c8.181,0 14.812,6.632 14.812,14.813" style="fill:#fff;fill-rule:nonzero;"/><path d="M17.778,14.941c-1.676,-0.875 -3.321,-1.733 -4.976,-2.596l0,5.176c1.66,-0.861 3.302,-1.712 4.976,-2.58m4.872,-1.151l0,2.578c-0.006,0.049 -0.016,0.098 -0.019,0.146c-0.02,0.317 -0.03,0.633 -0.057,0.949c-0.047,0.531 -0.095,1.066 -0.278,1.571c-0.249,0.679 -0.733,1.112 -1.444,1.264c-0.26,0.056 -0.528,0.08 -0.794,0.094c-1.081,0.055 -2.163,0.127 -3.246,0.143c-1.401,0.023 -2.802,0.004 -4.202,-0.006c-1.184,-0.008 -2.366,-0.065 -3.545,-0.182c-0.924,-0.092 -1.646,-0.708 -1.817,-1.624c-0.099,-0.535 -0.153,-1.079 -0.216,-1.621c-0.03,-0.243 -0.033,-0.489 -0.049,-0.734l0,-2.553c0.007,-0.04 0.017,-0.081 0.019,-0.121c0.019,-0.312 0.03,-0.625 0.057,-0.936c0.045,-0.545 0.094,-1.092 0.282,-1.608c0.246,-0.681 0.732,-1.113 1.443,-1.264c0.267,-0.057 0.544,-0.083 0.818,-0.097c1.074,-0.055 2.148,-0.124 3.222,-0.142c1.4,-0.021 2.801,-0.002 4.202,0.007c1.184,0.008 2.366,0.066 3.545,0.182c0.881,0.088 1.598,0.656 1.791,1.515c0.118,0.522 0.167,1.061 0.232,1.593c0.035,0.281 0.039,0.564 0.056,0.846" style="fill:#262626;fill-rule:nonzero;"/></g></svg>